<?xml version="1.0" encoding="iso-8859-1"?>
<svg xmlns="http://www.w3.org/2000/svg" xmlns:xlink="http://www.w3.org/1999/xlink" version="1.1" viewBox="0 0 463 463" enable-background="new 0 0 463 463" width="512px" height="512px">
  <g>
    <g>
      <path d="m404.803,90.197l-88-88c-1.406-1.407-3.314-2.197-5.303-2.197h-232c-12.958,0-23.5,10.542-23.5,23.5v416c0,12.958 10.542,23.5 23.5,23.5h304c12.958,0 23.5-10.542 23.5-23.5v-344c0-1.989-0.79-3.897-2.197-5.303zm-85.803-64.591l62.394,62.394h-53.894c-4.687,0-8.5-3.813-8.5-8.5v-53.894zm64.5,422.394h-304c-4.687,0-8.5-3.813-8.5-8.5v-416c0-4.687 3.813-8.5 8.5-8.5h224.5v64.5c0,12.958 10.542,23.5 23.5,23.5h64.5v336.5c0,4.687-3.813,8.5-8.5,8.5z" fill="#006DF0"/>
      <path d="m135.5,208h-16c-8.547,0-15.5,6.953-15.5,15.5v16c0,8.547 6.953,15.5 15.5,15.5h16c8.547,0 15.5-6.953 15.5-15.5v-16c0-8.547-6.953-15.5-15.5-15.5zm.5,31.5c0,0.276-0.224,0.5-0.5,0.5h-16c-0.276,0-0.5-0.224-0.5-0.5v-16c0-0.276 0.224-0.5 0.5-0.5h16c0.276,0 0.5,0.224 0.5,0.5v16z" fill="#006DF0"/>
      <path d="m175.5,223h72c4.142,0 7.5-3.358 7.5-7.5s-3.358-7.5-7.5-7.5h-72c-4.142,0-7.5,3.358-7.5,7.5s3.358,7.5 7.5,7.5z" fill="#006DF0"/>
      <path d="m175.5,255h104c4.142,0 7.5-3.358 7.5-7.5s-3.358-7.5-7.5-7.5h-104c-4.142,0-7.5,3.358-7.5,7.5s3.358,7.5 7.5,7.5z" fill="#006DF0"/>
      <path d="m135.5,136h-16c-8.547,0-15.5,6.953-15.5,15.5v16c0,8.547 6.953,15.5 15.5,15.5h16c8.547,0 15.5-6.953 15.5-15.5v-16c0-8.547-6.953-15.5-15.5-15.5zm.5,31.5c0,0.276-0.224,0.5-0.5,0.5h-16c-0.276,0-0.5-0.224-0.5-0.5v-16c0-0.276 0.224-0.5 0.5-0.5h16c0.276,0 0.5,0.224 0.5,0.5v16z" fill="#006DF0"/>
      <path d="m175.5,151h104c4.142,0 7.5-3.358 7.5-7.5s-3.358-7.5-7.5-7.5h-104c-4.142,0-7.5,3.358-7.5,7.5s3.358,7.5 7.5,7.5z" fill="#006DF0"/>
      <path d="m351.5,168h-176c-4.142,0-7.5,3.358-7.5,7.5s3.358,7.5 7.5,7.5h176c4.142,0 7.5-3.358 7.5-7.5s-3.358-7.5-7.5-7.5z" fill="#006DF0"/>
      <path d="m135.5,64h-16c-8.547,0-15.5,6.953-15.5,15.5v16c0,8.547 6.953,15.5 15.5,15.5h16c8.547,0 15.5-6.953 15.5-15.5v-16c0-8.547-6.953-15.5-15.5-15.5zm.5,31.5c0,0.276-0.224,0.5-0.5,0.5h-16c-0.276,0-0.5-0.224-0.5-0.5v-16c0-0.276 0.224-0.5 0.5-0.5h16c0.276,0 0.5,0.224 0.5,0.5v16z" fill="#006DF0"/>
      <path d="m175.5,79h72c4.142,0 7.5-3.358 7.5-7.5s-3.358-7.5-7.5-7.5h-72c-4.142,0-7.5,3.358-7.5,7.5s3.358,7.5 7.5,7.5z" fill="#006DF0"/>
      <path d="m175.5,111h104c4.142,0 7.5-3.358 7.5-7.5s-3.358-7.5-7.5-7.5h-104c-4.142,0-7.5,3.358-7.5,7.5s3.358,7.5 7.5,7.5z" fill="#006DF0"/>
      <path d="m135.5,352h-16c-8.547,0-15.5,6.953-15.5,15.5v16c0,8.547 6.953,15.5 15.5,15.5h16c8.547,0 15.5-6.953 15.5-15.5v-16c0-8.547-6.953-15.5-15.5-15.5zm.5,31.5c0,0.276-0.224,0.5-0.5,0.5h-16c-0.276,0-0.5-0.224-0.5-0.5v-16c0-0.276 0.224-0.5 0.5-0.5h16c0.276,0 0.5,0.224 0.5,0.5v16z" fill="#006DF0"/>
      <path d="m175.5,367h72c4.142,0 7.5-3.358 7.5-7.5s-3.358-7.5-7.5-7.5h-72c-4.142,0-7.5,3.358-7.5,7.5s3.358,7.5 7.5,7.5z" fill="#006DF0"/>
      <path d="m279.5,384h-104c-4.142,0-7.5,3.358-7.5,7.5s3.358,7.5 7.5,7.5h104c4.142,0 7.5-3.358 7.5-7.5s-3.358-7.5-7.5-7.5z" fill="#006DF0"/>
      <path d="m135.5,280h-16c-8.547,0-15.5,6.953-15.5,15.5v16c0,8.547 6.953,15.5 15.5,15.5h16c8.547,0 15.5-6.953 15.5-15.5v-16c0-8.547-6.953-15.5-15.5-15.5zm.5,31.5c0,0.276-0.224,0.5-0.5,0.5h-16c-0.276,0-0.5-0.224-0.5-0.5v-16c0-0.276 0.224-0.5 0.5-0.5h16c0.276,0 0.5,0.224 0.5,0.5v16z" fill="#006DF0"/>
      <path d="m175.5,295h104c4.142,0 7.5-3.358 7.5-7.5s-3.358-7.5-7.5-7.5h-104c-4.142,0-7.5,3.358-7.5,7.5s3.358,7.5 7.5,7.5z" fill="#006DF0"/>
      <path d="m351.5,312h-176c-4.142,0-7.5,3.358-7.5,7.5s3.358,7.5 7.5,7.5h176c4.142,0 7.5-3.358 7.5-7.5s-3.358-7.5-7.5-7.5z" fill="#006DF0"/>
    </g>
  </g>
</svg>
