<?xml version="1.0" encoding="iso-8859-1"?>
<svg xmlns="http://www.w3.org/2000/svg" xmlns:xlink="http://www.w3.org/1999/xlink" version="1.1" viewBox="0 0 511 511" enable-background="new 0 0 511 511" width="512px" height="512px">
  <g>
    <path d="m415.5,32h-80.001c-0.089,0-0.174,0.01-0.262,0.013-7.204-9.708-18.747-16.013-31.737-16.013h-20.68c-5.521-9.749-15.921-16-27.32-16s-21.799,6.251-27.32,16h-20.68c-12.99,0-24.533,6.305-31.736,16.013-0.089-0.003-0.175-0.013-0.264-0.013h-80c-21.78,0-39.5,17.72-39.5,39.5v400c0,21.78 17.72,39.5 39.5,39.5h320c21.78,0 39.5-17.72 39.5-39.5v-400c0-21.78-17.72-39.5-39.5-39.5zm-232.5,23.5c0-13.509 10.991-24.5 24.5-24.5h25.47c3.174,0 6.004-1.998 7.067-4.988 2.341-6.587 8.555-11.012 15.463-11.012s13.122,4.425 15.463,11.012c1.063,2.99 3.893,4.988 7.067,4.988h25.47c13.509,0 24.5,10.991 24.5,24.5v24.5h-145v-24.5zm257,416c0,13.509-10.991,24.5-24.5,24.5h-320c-13.509,0-24.5-10.991-24.5-24.5v-400c0-13.509 10.991-24.5 24.5-24.5h73.431c-0.603,2.74-0.931,5.582-0.931,8.5v32c0,4.142 3.358,7.5 7.5,7.5h160c4.142,0 7.5-3.358 7.5-7.5v-32c0-2.918-0.328-5.76-0.931-8.5h73.431c13.509,0 24.5,10.991 24.5,24.5v400z" fill="#006DF0"/>
    <path d="m415.5,64h-48c-4.142,0-7.5,3.358-7.5,7.5s3.358,7.5 7.5,7.5h40.5v385h-305v-385h40.5c4.142,0 7.5-3.358 7.5-7.5s-3.358-7.5-7.5-7.5h-48c-4.142,0-7.5,3.358-7.5,7.5v400c0,4.142 3.358,7.5 7.5,7.5h320c4.142,0 7.5-3.358 7.5-7.5v-400c0-4.142-3.358-7.5-7.5-7.5z" fill="#006DF0"/>
    <path d="m255.5,32c-1.97,0-3.91,0.8-5.3,2.2-1.4,1.39-2.2,3.33-2.2,5.3 0,1.97 0.8,3.91 2.2,5.3 1.39,1.4 3.33,2.2 5.3,2.2 1.97,0 3.91-0.8 5.3-2.2 1.4-1.39 2.2-3.32 2.2-5.3 0-1.97-0.8-3.91-2.2-5.3-1.39-1.401-3.33-2.2-5.3-2.2z" fill="#006DF0"/>
    <path d="m128,359.5c0,12.958 10.542,23.5 23.5,23.5s23.5-10.542 23.5-23.5c0-4.239-1.134-8.216-3.106-11.654l34.417-38.719c2.824,1.205 5.93,1.873 9.189,1.873 6.763,0 12.864-2.876 17.156-7.464l47.465,21.575c-0.08,0.786-0.121,1.582-0.121,2.389 0,12.958 10.542,23.5 23.5,23.5s23.5-10.542 23.5-23.5c0-7.067-3.14-13.41-8.092-17.721l39.05-94.835c0.51,0.033 1.024,0.056 1.542,0.056 12.958,0 23.5-10.542 23.5-23.5s-10.542-23.5-23.5-23.5-23.5,10.542-23.5,23.5c0,7.067 3.14,13.41 8.092,17.721l-39.05,94.835c-0.51-0.033-1.024-0.056-1.542-0.056-6.763,0-12.864,2.876-17.156,7.464l-47.465-21.575c0.08-0.786 0.121-1.582 0.121-2.389 0-12.958-10.542-23.5-23.5-23.5s-23.5,10.542-23.5,23.5c0,4.239 1.134,8.216 3.106,11.654l-34.417,38.719c-2.824-1.205-5.93-1.873-9.189-1.873-12.958,0-23.5,10.542-23.5,23.5zm231.5-176.5c4.687,0 8.5,3.813 8.5,8.5s-3.813,8.5-8.5,8.5-8.5-3.813-8.5-8.5 3.813-8.5 8.5-8.5zm-56,136c4.687,0 8.5,3.813 8.5,8.5s-3.813,8.5-8.5,8.5-8.5-3.813-8.5-8.5 3.813-8.5 8.5-8.5zm-88-40c4.687,0 8.5,3.813 8.5,8.5s-3.813,8.5-8.5,8.5-8.5-3.813-8.5-8.5 3.813-8.5 8.5-8.5zm-55.5,80.5c0,4.687-3.813,8.5-8.5,8.5s-8.5-3.813-8.5-8.5 3.813-8.5 8.5-8.5 8.5,3.813 8.5,8.5z" fill="#006DF0"/>
  </g>
</svg>
